<?xml version="1.0" standalone="no"?>
<!DOCTYPE svg PUBLIC "-//W3C//DTD SVG 20010904//EN"
 "http://www.w3.org/TR/2001/REC-SVG-20010904/DTD/svg10.dtd">
<svg version="1.0" xmlns="http://www.w3.org/2000/svg"
 width="943.000000pt" height="943.000000pt" viewBox="0 0 943.000000 943.000000"
 preserveAspectRatio="xMidYMid meet">
<metadata>
Created by potrace 1.14, written by Peter Selinger 2001-2017
</metadata>
<g transform="translate(0.000000,943.000000) scale(0.100000,-0.100000)"
fill="#000000" stroke="none">
<path d="M4468 9334 c-3 -3 -43 -7 -89 -10 -46 -2 -136 -15 -199 -29 -63 -14
-126 -27 -140 -30 -54 -12 -305 -96 -417 -140 -164 -65 -372 -166 -543 -264
-194 -111 -507 -319 -518 -343 -2 -5 -10 -8 -18 -8 -8 0 -14 -4 -14 -10 0 -5
-4 -10 -10 -10 -5 0 -18 -8 -28 -17 -10 -10 -36 -31 -57 -48 -21 -16 -43 -34
-49 -40 -6 -5 -27 -22 -46 -37 -19 -15 -48 -39 -65 -53 -16 -15 -50 -43 -74
-63 -152 -128 -503 -480 -620 -622 -11 -14 -29 -34 -39 -45 -10 -11 -39 -45
-63 -75 -24 -30 -46 -57 -49 -60 -3 -3 -28 -34 -55 -70 -28 -36 -52 -67 -55
-70 -3 -3 -17 -21 -30 -40 -13 -19 -27 -37 -30 -40 -7 -7 -97 -133 -135 -190
-16 -25 -34 -49 -38 -55 -15 -19 -104 -160 -132 -210 -16 -27 -34 -57 -40 -65
-26 -32 -198 -364 -244 -470 -13 -30 -34 -77 -46 -105 -23 -52 -57 -143 -61
-160 -2 -5 -12 -34 -22 -62 -11 -29 -18 -53 -16 -53 3 0 0 -9 -6 -21 -6 -11
-13 -28 -15 -37 -2 -9 -11 -42 -20 -72 -8 -30 -17 -66 -20 -80 -3 -14 -7 -36
-10 -50 -42 -209 -49 -409 -18 -545 4 -16 6 -33 5 -37 -3 -14 57 -151 85 -191
46 -68 121 -135 188 -168 105 -52 181 -67 322 -64 287 7 640 142 1028 394 55
36 105 69 110 73 6 4 53 40 105 80 52 39 97 74 100 77 3 3 28 24 55 45 28 22
55 44 60 50 6 6 26 23 45 38 19 14 53 43 75 63 22 20 64 57 93 82 141 122 375
366 495 518 104 131 188 279 222 390 10 33 20 67 23 75 17 51 20 190 6 260
-21 102 -64 178 -150 264 -42 42 -82 76 -90 76 -8 0 -17 7 -20 15 -4 8 -14 15
-24 15 -11 0 -21 4 -24 9 -6 9 -103 47 -146 57 -67 16 -207 16 -270 -1 -73
-18 -180 -64 -180 -77 0 -4 -4 -8 -9 -8 -28 0 -93 -61 -188 -173 -16 -20 -57
-102 -88 -177 -15 -36 -35 -83 -45 -105 -10 -22 -32 -73 -50 -114 -84 -193
-279 -590 -300 -611 -3 -3 -14 -23 -25 -45 -11 -22 -23 -42 -26 -45 -4 -3 -17
-23 -28 -45 -28 -50 -38 -67 -78 -127 -18 -26 -33 -52 -33 -58 0 -5 -4 -10 -9
-10 -5 0 -14 -13 -21 -30 -7 -16 -16 -30 -20 -30 -4 0 -11 -10 -17 -22 -36
-79 -291 -378 -322 -378 -5 0 -16 -6 -23 -14 -18 -17 -135 -73 -168 -80 -77
-17 -108 -21 -135 -20 -148 5 -218 86 -215 247 3 146 5 177 11 177 4 0 6 6 6
13 -4 43 58 284 112 433 73 202 193 454 306 644 30 50 55 95 55 100 0 6 4 10
9 10 5 0 14 14 21 30 7 17 16 30 21 30 5 0 9 4 9 10 0 5 22 42 50 82 27 40 56
81 62 92 29 41 193 262 205 274 7 8 26 30 41 50 15 20 34 43 42 52 8 9 26 30
40 47 166 204 525 566 727 733 324 269 587 452 858 597 97 52 242 123 250 123
3 0 28 11 57 24 131 61 440 158 537 170 20 3 36 5 36 6 0 4 49 10 122 14 45 2
87 7 93 11 5 3 10 3 10 -2 0 -4 28 -8 63 -9 59 -1 106 -5 187 -19 68 -12 226
-67 305 -106 227 -114 440 -312 575 -534 66 -108 165 -327 149 -331 -2 0 1 -7
7 -15 6 -8 15 -27 19 -44 28 -105 29 -99 -33 -146 -31 -24 -58 -46 -60 -51 -2
-4 -8 -8 -14 -8 -6 0 -21 -11 -34 -25 -13 -14 -27 -25 -33 -25 -5 0 -11 -3
-13 -8 -1 -4 -39 -36 -82 -72 -44 -36 -92 -76 -106 -90 -15 -14 -56 -50 -91
-80 -65 -57 -112 -99 -189 -170 -25 -23 -76 -69 -113 -103 -37 -34 -85 -78
-106 -97 -20 -19 -84 -78 -140 -130 -570 -526 -1044 -1006 -1401 -1420 -25
-29 -55 -64 -68 -78 -13 -14 -35 -41 -50 -60 -15 -19 -33 -41 -40 -48 -17 -17
-187 -229 -222 -275 -14 -18 -33 -41 -42 -51 -10 -10 -16 -18 -13 -18 5 0 -61
-87 -98 -130 -44 -50 -325 -460 -402 -585 -27 -44 -53 -81 -57 -83 -5 -2 -8
-10 -8 -18 0 -8 -4 -14 -10 -14 -5 0 -10 -7 -10 -14 0 -8 -13 -34 -28 -58 -16
-24 -38 -59 -48 -78 -10 -19 -22 -37 -25 -40 -3 -3 -16 -26 -29 -53 -13 -26
-27 -47 -32 -47 -4 0 -8 -6 -8 -13 0 -7 -10 -30 -22 -52 -101 -183 -285 -557
-292 -595 -1 -3 -4 -9 -8 -15 -3 -5 -24 -55 -47 -110 -23 -55 -46 -109 -51
-120 -11 -26 -22 -58 -25 -70 -2 -5 -16 -44 -33 -85 -30 -77 -63 -167 -66
-185 -1 -5 -5 -15 -8 -21 -6 -9 -14 -36 -31 -109 -1 -5 -6 -16 -10 -22 -5 -7
-6 -13 -3 -13 3 0 -1 -18 -9 -39 -7 -22 -11 -41 -9 -44 3 -2 0 -15 -5 -28 -5
-13 -11 -44 -15 -69 -3 -25 -8 -56 -11 -70 -33 -166 -33 -508 0 -700 3 -19 11
-62 16 -95 19 -112 76 -297 125 -403 13 -29 24 -57 24 -62 0 -6 5 -10 10 -10
6 0 10 -6 10 -14 0 -21 76 -149 139 -236 55 -75 207 -234 269 -280 18 -14 43
-33 54 -42 12 -10 27 -18 35 -18 7 0 13 -4 13 -8 0 -14 191 -109 265 -132 39
-12 81 -26 95 -30 14 -5 39 -11 55 -14 17 -2 30 -5 30 -6 0 -1 14 -4 30 -6 17
-1 48 -6 70 -9 53 -9 305 -10 375 -2 30 3 82 11 115 17 60 11 73 15 175 47 30
9 60 18 65 19 13 2 121 50 158 69 16 8 35 15 42 15 7 0 15 3 17 8 1 4 28 20
58 36 30 16 57 32 60 36 3 4 16 13 30 20 115 59 451 361 586 525 27 33 54 65
59 71 36 42 140 183 190 259 22 33 43 62 46 65 3 3 19 27 35 53 16 27 36 59
44 72 26 40 85 139 89 150 2 6 13 22 23 37 11 16 16 28 11 28 -4 0 -3 4 4 8
13 8 209 391 258 502 15 36 38 88 50 115 19 42 50 115 86 200 38 93 141 359
144 375 2 8 4 16 5 18 2 1 3 5 5 10 1 4 7 20 14 36 6 16 13 36 15 45 2 9 8 27
13 41 15 35 64 185 67 201 1 8 4 19 7 24 5 9 50 145 55 168 1 4 2 8 4 10 1 1
3 9 5 17 1 8 13 49 25 90 12 41 24 82 25 90 2 8 4 15 6 15 1 0 3 9 5 20 2 11
19 74 38 140 20 66 38 135 41 154 3 18 8 37 11 42 5 9 10 28 20 79 3 14 8 34
11 45 7 21 8 26 16 65 3 14 13 54 22 90 9 36 19 76 21 90 3 14 7 37 10 52 3
15 5 29 4 30 -1 2 3 15 9 29 5 15 13 46 16 70 4 24 8 46 10 50 2 3 7 21 10 40
3 19 13 68 21 109 9 41 17 82 19 91 2 9 6 32 9 50 3 19 8 48 12 64 3 17 7 39
9 50 1 11 13 78 25 149 12 70 23 140 25 155 2 14 4 26 5 26 1 0 3 14 5 30 4
28 7 48 19 130 3 17 10 66 16 110 6 44 13 91 15 105 3 14 7 50 10 80 3 30 7
66 10 80 2 14 6 54 10 90 4 36 8 76 10 90 2 14 6 57 10 95 3 39 8 90 10 115
31 323 46 648 45 951 l0 166 103 34 c56 18 108 35 115 36 19 5 33 8 92 26 53
16 97 26 130 31 9 1 21 5 27 9 6 4 24 9 40 11 15 2 64 10 108 19 133 27 192
35 300 42 39 2 72 5 75 5 13 3 160 -2 200 -7 70 -8 73 -9 105 -17 194 -48 381
-238 425 -431 6 -27 15 -57 19 -65 11 -23 16 -93 16 -235 -1 -143 -9 -238 -30
-330 -8 -33 -16 -73 -18 -90 -3 -16 -13 -57 -23 -90 -9 -33 -18 -67 -19 -75
-1 -8 -16 -60 -34 -115 -18 -55 -34 -104 -35 -110 -1 -5 -4 -14 -7 -20 -8 -13
-29 -77 -29 -90 -1 -5 -7 -19 -14 -30 -7 -11 -21 -45 -31 -75 -10 -30 -21 -59
-25 -65 -4 -5 -22 -48 -41 -95 -18 -47 -38 -88 -42 -91 -5 -3 -8 -9 -8 -13 2
-9 -89 -212 -119 -266 -4 -8 -36 -69 -69 -135 -33 -66 -78 -151 -99 -190 -21
-38 -58 -106 -82 -150 -23 -44 -46 -84 -50 -90 -5 -5 -21 -32 -36 -60 -15 -27
-38 -68 -51 -90 -13 -22 -26 -48 -29 -57 -4 -10 -10 -18 -15 -18 -5 0 -9 -4
-9 -8 0 -5 -24 -48 -52 -96 -29 -48 -57 -95 -63 -104 -30 -53 -110 -179 -123
-194 -8 -10 -12 -18 -8 -18 4 0 2 -6 -4 -12 -21 -24 -100 -150 -100 -159 0 -5
-4 -9 -9 -9 -5 0 -12 -11 -15 -25 -4 -14 -11 -25 -16 -25 -6 0 -10 -5 -10 -11
0 -5 -20 -41 -45 -79 -25 -38 -45 -71 -45 -73 0 -3 -18 -34 -40 -68 -22 -35
-43 -71 -47 -79 -4 -8 -20 -37 -36 -65 -27 -46 -113 -208 -193 -363 -18 -37
-34 -73 -34 -79 0 -7 -4 -13 -10 -13 -5 0 -10 -6 -10 -13 0 -7 -12 -38 -26
-68 -54 -112 -138 -333 -188 -499 -39 -129 -68 -305 -71 -435 -1 -71 1 -140 6
-153 5 -12 10 -36 11 -53 1 -17 6 -33 10 -35 5 -3 6 -10 2 -15 -3 -5 -1 -15 4
-22 6 -7 11 -16 13 -22 16 -65 86 -160 155 -210 137 -100 357 -119 562 -49
108 36 233 113 392 240 20 16 346 341 391 390 20 21 70 72 112 112 82 79 80
79 92 -3 17 -119 65 -281 115 -391 84 -183 193 -302 345 -377 63 -31 84 -38
150 -53 44 -10 183 -12 230 -3 57 11 135 40 135 52 0 4 6 7 14 7 8 0 18 9 21
20 3 11 10 20 15 20 5 0 12 19 15 43 12 78 -20 114 -145 163 -107 43 -153 95
-155 174 -1 44 30 113 168 375 74 141 105 269 102 416 -3 98 -30 223 -56 255
-5 6 -7 13 -4 16 3 3 -1 11 -10 18 -8 7 -15 17 -15 22 0 13 -54 83 -100 129
-52 53 -177 134 -220 143 -3 1 -9 4 -15 8 -5 3 -30 11 -55 18 -44 12 -61 16
-110 26 -37 8 -188 9 -245 1 -63 -8 -149 -34 -197 -58 -21 -11 -38 -17 -38
-14 0 3 -33 -18 -72 -46 -121 -84 -234 -209 -340 -373 -14 -22 -30 -46 -35
-52 -8 -11 -10 -13 -63 -109 -34 -61 -123 -236 -125 -245 0 -3 -8 -18 -17 -35
-9 -16 -31 -59 -50 -95 -41 -78 -61 -113 -68 -120 -3 -3 -24 -30 -45 -61 -47
-66 -132 -159 -145 -159 -6 0 -10 -3 -10 -8 0 -11 -110 -69 -145 -76 -112 -24
-174 2 -192 79 -10 45 -10 179 0 240 12 68 17 92 26 123 5 18 10 35 10 37 1 3
1 6 2 8 0 1 2 9 4 17 26 134 177 487 292 685 46 80 75 130 109 190 15 28 32
52 36 53 4 2 8 8 8 14 0 11 59 107 168 278 100 154 146 225 152 230 3 3 23 32
45 65 72 109 335 469 442 605 56 72 339 426 343 430 3 3 32 39 65 80 32 41 62
77 65 80 3 3 21 25 40 50 19 25 38 47 42 48 5 2 8 8 8 13 0 5 8 17 18 27 25
27 49 58 117 147 33 44 62 82 65 85 5 4 71 97 183 258 20 28 37 54 37 57 0 3
16 28 35 55 19 27 35 52 35 55 0 3 11 23 24 44 28 43 126 236 151 296 9 22 23
54 31 70 30 64 108 316 121 390 7 42 11 60 13 63 4 4 9 33 26 152 24 170 24
397 -1 490 -2 8 -6 31 -9 50 -4 19 -11 53 -16 75 -6 22 -13 49 -15 59 -35 152
-164 407 -272 541 -37 45 -186 195 -194 195 -4 0 -23 14 -41 30 -18 17 -38 30
-44 30 -7 0 -14 4 -16 8 -12 30 -270 151 -358 168 -14 3 -29 9 -35 15 -5 5
-23 9 -40 9 -18 0 -35 3 -38 7 -4 3 -21 8 -39 10 -17 2 -43 6 -57 8 -128 27
-394 24 -541 -5 -30 -6 -68 -13 -85 -16 -16 -2 -38 -7 -47 -10 -9 -3 -27 -7
-40 -9 -13 -3 -72 -19 -133 -36 -60 -17 -114 -32 -120 -33 -5 -1 -14 -4 -20
-7 -5 -4 -35 -14 -65 -23 -59 -19 -195 -69 -247 -92 -17 -8 -34 -14 -37 -14
-3 0 -33 -13 -66 -29 -33 -16 -60 -28 -60 -25 0 2 -60 -28 -134 -65 l-134 -69
-21 57 c-12 32 -21 63 -21 70 0 6 -4 11 -10 11 -5 0 -10 6 -10 14 0 14 -59
147 -69 156 -3 3 -19 30 -35 60 -44 84 -131 211 -204 300 -105 127 -320 320
-412 371 -14 8 -27 16 -30 20 -7 7 -109 69 -115 69 -2 0 -37 16 -77 35 -67 33
-226 87 -288 99 -14 3 -49 9 -78 15 -30 6 -99 14 -155 17 -56 3 -105 8 -108
10 -3 2 -9 1 -11 -2z m1347 -2267 c-2 -28 -7 -101 -10 -162 -6 -116 -10 -159
-21 -265 -9 -92 -12 -120 -18 -160 -3 -19 -8 -57 -11 -85 -8 -73 -13 -110 -15
-110 -1 0 -3 -9 -4 -20 -3 -26 -17 -112 -21 -133 -1 -10 -6 -39 -9 -66 -4 -27
-10 -54 -13 -58 -3 -5 -6 -26 -8 -46 -2 -21 -8 -57 -15 -82 -7 -25 -13 -54
-15 -65 -1 -11 -5 -27 -9 -35 -5 -14 -11 -42 -21 -95 -17 -93 -195 -663 -248
-795 -6 -14 -11 -31 -13 -37 -2 -13 -41 -117 -65 -178 -7 -16 -13 -33 -14 -37
-2 -5 -4 -10 -5 -13 -1 -3 -3 -8 -5 -12 -1 -5 -6 -19 -12 -33 -6 -14 -25 -61
-43 -105 -17 -44 -34 -84 -38 -90 -4 -5 -7 -15 -8 -21 -1 -6 -18 -48 -39 -95
-37 -84 -57 -130 -60 -139 -1 -3 -13 -30 -27 -60 -14 -30 -40 -86 -57 -125
-17 -38 -36 -77 -41 -85 -6 -8 -15 -26 -21 -40 -14 -34 -142 -285 -173 -340
-14 -25 -35 -63 -46 -85 -11 -22 -25 -47 -30 -55 -5 -8 -39 -67 -76 -130 -84
-142 -213 -342 -228 -352 -6 -4 -7 -8 -3 -8 4 0 3 -6 -3 -12 -6 -7 -47 -62
-92 -123 -44 -60 -84 -111 -89 -113 -5 -2 -9 -9 -9 -15 0 -7 -9 -18 -20 -25
-11 -7 -20 -17 -20 -22 0 -5 -19 -31 -42 -57 -82 -90 -183 -196 -217 -227 -18
-17 -48 -44 -66 -61 -114 -105 -282 -221 -400 -275 -81 -37 -193 -79 -230 -85
-11 -2 -36 -7 -55 -11 -19 -5 -82 -8 -140 -8 -138 1 -199 23 -279 103 -97 95
-144 211 -166 401 -15 123 -6 324 20 485 12 72 45 229 61 285 8 30 17 64 19
75 12 54 93 302 107 328 5 10 11 26 13 36 2 11 18 54 35 97 32 80 41 102 79
186 11 26 21 50 21 53 0 14 204 421 214 427 6 4 7 8 2 8 -5 0 -4 6 2 13 9 11
33 53 88 157 11 19 22 37 25 40 4 3 9 15 13 28 4 12 12 22 17 22 5 0 9 4 9 10
0 10 137 240 149 250 10 8 31 44 37 63 4 9 10 17 15 17 5 0 9 7 9 15 0 7 6 18
13 22 8 4 17 15 20 23 10 21 29 51 48 72 9 10 22 31 30 46 8 14 21 36 30 47 9
11 74 97 145 190 70 94 159 208 198 255 39 46 79 94 88 105 46 55 64 75 121
139 150 166 349 368 481 487 33 30 67 61 76 69 8 8 42 38 75 65 33 28 71 60
85 73 55 50 312 244 425 320 66 45 125 85 131 89 13 10 24 17 164 100 139 82
193 111 202 106 3 -2 5 -27 3 -56z"/>
</g>
</svg>
