<?xml version="1.0" standalone="no"?>
<!DOCTYPE svg PUBLIC "-//W3C//DTD SVG 20010904//EN"
 "http://www.w3.org/TR/2001/REC-SVG-20010904/DTD/svg10.dtd">
<svg version="1.0" xmlns="http://www.w3.org/2000/svg"
 width="1569.000000pt" height="1569.000000pt" viewBox="0 0 1569.000000 1569.000000"
 preserveAspectRatio="xMidYMid meet">
<metadata>
Created by potrace 1.14, written by Peter Selinger 2001-2017
</metadata>
<g transform="translate(0.000000,1569.000000) scale(0.100000,-0.100000)"
fill="#000000" stroke="none">
<path d="M7365 14134 c-201 -25 -284 -41 -410 -76 -38 -10 -77 -21 -85 -23 -8
-1 -42 -11 -75 -21 -33 -10 -62 -18 -65 -19 -14 -2 -212 -70 -255 -87 -27 -11
-59 -23 -70 -28 -632 -240 -1310 -656 -1920 -1178 -276 -236 -680 -633 -854
-838 -14 -16 -63 -74 -111 -129 -276 -320 -556 -704 -777 -1065 -415 -677
-669 -1317 -739 -1865 -16 -124 -9 -433 11 -505 2 -8 7 -28 10 -45 55 -279
258 -492 540 -566 132 -35 378 -31 544 7 36 9 73 17 81 19 41 8 113 30 190 56
352 123 748 340 1104 607 84 64 420 335 452 366 6 6 37 34 69 61 277 237 553
519 749 765 38 47 76 94 85 105 123 154 236 389 277 579 19 86 22 283 5 346
-37 139 -106 255 -210 353 -175 165 -370 245 -597 245 -278 0 -536 -143 -700
-389 -25 -38 -73 -134 -106 -212 -195 -460 -325 -738 -498 -1062 -58 -109
-227 -396 -270 -460 -15 -22 -51 -76 -80 -120 -55 -84 -200 -286 -210 -295 -4
-3 -25 -30 -47 -60 -131 -176 -327 -311 -518 -355 -240 -56 -397 16 -435 200
-15 72 -8 259 15 385 8 47 17 99 20 115 20 137 132 485 224 700 12 28 32 73
44 100 46 106 197 397 282 540 81 139 256 409 355 550 46 65 252 334 287 375
12 14 63 75 113 135 85 101 147 171 302 339 158 172 468 471 638 615 41 36 84
73 95 83 49 45 313 251 421 328 65 46 121 87 124 90 13 14 351 229 425 271 22
12 67 37 100 56 117 67 422 211 560 266 185 73 300 111 459 152 223 57 321 70
521 69 196 0 259 -5 362 -29 38 -9 77 -18 87 -21 162 -33 437 -170 611 -303
329 -251 591 -632 711 -1036 14 -44 29 -94 34 -111 19 -59 14 -69 -72 -135
-152 -116 -351 -281 -547 -453 -248 -219 -234 -207 -306 -274 -87 -81 -259
-239 -282 -260 -11 -9 -71 -64 -133 -122 -146 -136 -173 -161 -245 -228 -485
-448 -1101 -1070 -1490 -1502 -32 -36 -61 -67 -65 -70 -3 -3 -32 -36 -65 -75
-33 -38 -63 -72 -66 -75 -3 -3 -61 -70 -129 -150 -67 -80 -132 -156 -143 -170
-12 -14 -70 -86 -130 -160 -60 -74 -116 -144 -125 -155 -56 -67 -358 -475
-451 -610 -61 -88 -114 -164 -119 -170 -12 -14 -134 -201 -215 -330 -85 -135
-327 -541 -327 -550 0 -2 -33 -64 -74 -138 -157 -286 -362 -722 -488 -1037
-43 -107 -129 -332 -133 -350 -2 -8 -23 -67 -45 -130 -39 -107 -111 -371 -124
-450 -3 -19 -8 -46 -11 -59 -2 -14 -7 -47 -10 -75 -3 -28 -8 -58 -10 -66 -2
-8 -7 -48 -10 -89 -4 -41 -8 -88 -11 -105 -6 -41 -6 -424 0 -456 3 -14 7 -56
10 -95 25 -314 129 -676 276 -964 258 -506 657 -848 1155 -990 169 -48 309
-65 530 -66 283 0 462 29 725 120 99 34 366 158 420 195 14 10 70 47 125 82
260 167 584 471 831 778 282 350 532 747 779 1235 133 264 182 368 275 585 34
80 68 159 76 176 88 197 318 837 431 1204 150 486 356 1283 427 1655 2 11 14
67 26 125 25 118 26 122 41 205 6 33 12 65 13 70 2 6 7 33 11 60 5 28 10 52
10 55 3 10 15 76 19 100 4 22 14 81 31 175 3 17 10 62 16 100 12 80 15 99 29
175 5 30 12 78 15 105 4 28 8 57 10 65 2 8 6 34 9 58 4 23 8 59 11 81 3 21 8
56 10 77 15 117 36 282 40 304 2 14 7 52 10 85 3 33 8 76 10 95 3 19 7 62 10
95 4 33 8 74 10 90 2 17 6 64 10 105 3 41 8 86 10 100 2 14 7 72 11 130 3 58
8 121 9 140 2 19 6 89 10 155 4 66 8 140 10 165 8 98 19 506 19 697 l0 202
121 40 c321 106 693 194 955 226 30 4 69 9 85 11 17 3 116 7 220 9 313 6 448
-25 630 -148 255 -173 387 -483 379 -892 -1 -83 -14 -256 -19 -265 -1 -3 -6
-32 -10 -65 -15 -138 -86 -426 -163 -660 -25 -77 -47 -142 -47 -145 -1 -3 -4
-12 -8 -20 -3 -8 -23 -60 -43 -115 -38 -102 -148 -370 -189 -460 -12 -27 -42
-93 -66 -145 -54 -117 -260 -529 -332 -665 -47 -88 -101 -184 -177 -320 -153
-273 -321 -552 -600 -1000 -241 -387 -400 -653 -482 -805 -25 -47 -64 -119
-86 -161 -73 -136 -178 -351 -237 -484 -31 -71 -65 -148 -75 -170 -81 -182
-187 -515 -230 -725 -95 -464 -40 -801 165 -1005 119 -119 267 -175 476 -180
186 -4 327 32 518 131 86 46 241 147 288 188 7 6 53 45 102 86 49 41 179 167
288 280 109 113 261 267 338 343 l140 139 7 -34 c4 -18 10 -50 13 -70 29 -183
111 -441 187 -591 203 -398 550 -591 958 -533 100 15 209 73 248 132 65 100
14 213 -119 263 -165 63 -237 117 -258 194 -24 83 -1 164 95 337 144 262 189
359 228 493 65 225 49 480 -42 667 -131 269 -368 440 -702 505 -75 14 -317 15
-385 1 -235 -50 -407 -147 -582 -327 -184 -190 -321 -404 -547 -855 -224 -445
-374 -647 -556 -743 -77 -41 -144 -58 -220 -57 -81 1 -114 20 -143 84 -18 40
-21 66 -21 177 -1 72 3 148 7 170 4 22 9 56 13 75 22 133 92 363 174 570 40
103 214 461 266 550 15 25 36 61 47 80 10 19 31 55 45 80 14 25 42 73 64 107
21 34 38 65 38 68 0 3 8 18 19 33 10 15 62 99 117 187 153 249 378 589 547
825 57 79 310 421 329 445 27 33 150 192 165 212 10 14 23 30 28 37 6 6 33 39
60 74 97 123 188 236 416 518 328 405 560 711 716 944 344 517 530 958 628
1490 3 14 7 34 9 45 2 11 7 47 10 80 4 33 11 87 16 120 5 33 7 143 5 245 -4
170 -7 220 -20 290 -3 14 -8 43 -11 65 -3 22 -10 54 -15 70 -4 17 -10 41 -13
55 -27 144 -137 417 -231 579 -238 405 -605 690 -1057 822 -225 65 -369 84
-638 84 -156 -1 -255 -7 -300 -19 -8 -3 -37 -7 -64 -11 -27 -3 -52 -8 -56 -10
-3 -2 -25 -6 -49 -10 -101 -15 -395 -95 -571 -155 -170 -58 -339 -121 -415
-155 -216 -95 -290 -129 -402 -187 -73 -38 -133 -63 -133 -56 0 21 -92 243
-147 353 -76 154 -164 298 -257 423 -44 59 -82 109 -85 112 -4 3 -31 34 -61
70 -112 132 -261 269 -422 388 -53 40 -101 72 -107 72 -6 0 -11 5 -11 10 0 6
-6 10 -14 10 -7 0 -25 9 -39 20 -62 49 -392 197 -477 215 -8 2 -40 10 -70 19
-51 14 -158 36 -255 51 -47 7 -377 14 -420 9z m1961 -3166 c-4 -95 -9 -186
-11 -203 -2 -16 -7 -68 -10 -115 -3 -47 -8 -101 -10 -120 -2 -19 -7 -62 -10
-95 -3 -33 -8 -73 -10 -90 -2 -16 -7 -52 -10 -80 -19 -169 -31 -248 -74 -510
-31 -183 -30 -178 -51 -280 -6 -27 -12 -59 -14 -71 -2 -11 -11 -49 -20 -85 -9
-35 -18 -73 -20 -84 -44 -212 -245 -860 -389 -1250 -111 -304 -273 -703 -368
-912 -16 -34 -40 -91 -55 -125 -40 -96 -313 -647 -393 -792 -39 -72 -71 -131
-71 -132 0 -1 -20 -37 -45 -78 -25 -42 -45 -78 -45 -81 0 -16 -335 -540 -400
-625 -15 -19 -67 -89 -116 -155 -368 -496 -766 -857 -1146 -1039 -289 -138
-588 -178 -788 -105 -48 17 -128 70 -172 113 -113 113 -186 297 -215 544 -13
116 -7 450 11 549 2 10 6 39 10 64 77 534 301 1184 640 1859 109 217 214 411
283 525 7 11 15 27 19 35 38 78 313 508 468 730 65 94 276 381 323 440 79 99
189 236 193 240 3 3 28 32 55 65 40 48 119 140 190 221 245 280 667 692 955
934 36 30 67 57 70 60 6 7 215 171 287 226 28 21 83 62 123 89 39 28 76 55 83
60 82 71 696 444 731 445 5 0 5 -76 2 -172z"/>
</g>
</svg>
