<svg width="40" height="40" viewBox="0 0 40 40" fill="none" xmlns="http://www.w3.org/2000/svg">
<path d="M19.9997 17.1992C21.5461 17.1992 22.7998 18.4528 22.7998 19.9992C22.7998 21.5456 21.5461 22.7992 19.9997 22.7992C18.4534 22.7992 17.1998 21.5456 17.1998 19.9992C17.1998 18.4528 18.4534 17.1992 19.9997 17.1992Z" fill="#0D0D0D"/>
<path fill-rule="evenodd" clip-rule="evenodd" d="M20 4C11.1634 4 4 11.1634 4 20C4 28.8366 11.1634 36 20 36C28.8366 36 36 28.8366 36 20C36 11.1634 28.8366 4 20 4ZM22.333 10.0017C20.0764 9.47512 17.7082 9.72735 15.6132 10.7174C13.5182 11.7074 11.8197 13.3771 10.7939 15.4548C9.76811 17.5325 9.47535 19.8962 9.96323 22.1614C10.4511 24.4266 11.6909 26.4601 13.481 27.9314C15.2712 29.4027 17.5064 30.2251 19.8233 30.2649C22.14 30.3047 24.4022 29.5597 26.2419 28.1509C26.6511 27.8375 26.7288 27.2517 26.4154 26.8424C26.102 26.4332 25.5162 26.3554 25.107 26.6688C23.6018 27.8215 21.7509 28.4311 19.8554 28.3985C17.9597 28.3659 16.1309 27.693 14.6663 26.4892C13.2016 25.2855 12.1872 23.6217 11.7881 21.7684C11.3889 19.915 11.6284 17.9811 12.4677 16.2811C13.307 14.5812 14.6966 13.2151 16.4107 12.4051C18.1248 11.5951 20.0625 11.3887 21.9087 11.8196C23.755 12.2504 25.4012 13.2931 26.5797 14.7782C27.7582 16.2633 28.3997 18.1034 28.3998 19.9992V20.9325C28.3998 21.4275 28.2031 21.9024 27.853 22.2524C27.5029 22.6025 27.0282 22.7992 26.5331 22.7992C26.0381 22.7992 25.5632 22.6025 25.2132 22.2524C24.8631 21.9024 24.6664 21.4275 24.6664 20.9325V16.2658C24.6664 15.7504 24.2486 15.3325 23.7331 15.3325C23.2177 15.3325 22.7999 15.7502 22.7998 16.2655C22.0198 15.6797 21.0503 15.3325 19.9997 15.3325C17.4224 15.3325 15.3331 17.4218 15.3331 19.9992C15.3331 22.5765 17.4224 24.6659 19.9997 24.6659C21.3886 24.6659 22.6358 24.0591 23.4907 23.0962C23.6106 23.2648 23.745 23.4242 23.8932 23.5724C24.5934 24.2725 25.543 24.6659 26.5331 24.6659C27.5233 24.6659 28.4728 24.2725 29.1729 23.5724C29.8731 22.8723 30.2664 21.9226 30.2664 20.9325V19.9991C30.2663 17.6819 29.4822 15.4329 28.0419 13.6179C26.6015 11.8028 24.5896 10.5283 22.333 10.0017Z" fill="#0D0D0D"/>
</svg>
