<svg width="40" height="40" viewBox="0 0 40 40" fill="none" xmlns="http://www.w3.org/2000/svg">
<g clip-path="url(#clip0_1377_44123)">
<path d="M36 20C36 11.1634 28.8366 4 20 4C11.1634 4 4 11.1634 4 20C4 27.9859 9.85094 34.6053 17.5 35.8056V24.625H13.4375V20H17.5V16.475C17.5 12.465 19.8888 10.25 23.5434 10.25C25.2934 10.25 27.125 10.5625 27.125 10.5625V14.5H25.1075C23.12 14.5 22.5 15.7334 22.5 17V20H26.9375L26.2281 24.625H22.5V35.8056C30.1491 34.6053 36 27.9859 36 20Z" fill="#0D0D0D"/>
</g>
<defs>
<clipPath id="clip0_1377_44123">
<rect width="32" height="32" fill="white" transform="translate(4 4)"/>
</clipPath>
</defs>
</svg>
