<svg width="180" height="52" viewBox="0 0 180 52" fill="none" xmlns="http://www.w3.org/2000/svg">
<path d="M173.333 52H6.66667C3.00167 52 0 49.0734 0 45.5V6.5C0 2.92663 3.00167 2.74817e-06 6.66667 2.74817e-06H173.333C176.998 2.74817e-06 180 2.92663 180 6.5V45.5C180 49.0734 176.998 52 173.333 52Z" fill="white"/>
<path d="M173.333 1.04162C176.42 1.04162 178.932 3.4905 178.932 6.5V45.5C178.932 48.5095 176.42 50.9584 173.333 50.9584H6.66667C3.58 50.9584 1.06833 48.5095 1.06833 45.5V6.5C1.06833 3.4905 3.58 1.04162 6.66667 1.04162H173.333ZM173.333 2.74817e-06H6.66667C3.00167 2.74817e-06 0 2.92663 0 6.5V45.5C0 49.0734 3.00167 52 6.66667 52H173.333C176.998 52 180 49.0734 180 45.5V6.5C180 2.92663 176.998 2.74817e-06 173.333 2.74817e-06Z" fill="#B2B2B2"/>
<path d="M12.9133 9.80044C12.5216 10.2002 12.2949 10.8226 12.2949 11.6286V40.3781C12.2949 41.1841 12.5216 41.8064 12.9133 42.2062L13.0099 42.2939L29.5332 26.1902V25.8099L13.0099 9.7062L12.9133 9.80044Z" fill="black"/>
<path d="M37.0349 31.5605L31.5332 26.1899V25.8097L37.0415 20.439L37.1649 20.5089L43.6882 24.1278C45.5499 25.1548 45.5499 26.8448 43.6882 27.8783L37.1649 31.4907L37.0349 31.5605Z" fill="black"/>
<path d="M36.1657 32.4907L30.5341 26.9998L13.9141 43.206C14.5324 43.8397 15.5407 43.9161 16.6874 43.2823L36.1657 32.4907Z" fill="black"/>
<path d="M36.1657 19.5091L16.6874 8.71751C15.5407 8.09025 14.5324 8.16663 13.9141 8.80038L30.5341 25L36.1657 19.5091Z" fill="black"/>
<path d="M63.2234 13.3172C63.2234 14.4027 62.8901 15.2721 62.2334 15.9204C61.4784 16.6891 60.4951 17.0758 59.2901 17.0758C58.1384 17.0758 57.155 16.6826 56.3484 15.9074C55.54 15.1209 55.1367 14.1557 55.1367 13.0003C55.1367 11.8449 55.54 10.8797 56.3484 10.0997C57.155 9.31806 58.1384 8.9248 59.2901 8.9248C59.8634 8.9248 60.41 9.04018 60.9317 9.25468C61.4517 9.4708 61.875 9.7633 62.1817 10.1241L61.4851 10.8098C60.95 10.1939 60.2217 9.89006 59.2901 9.89006C58.4501 9.89006 57.7217 10.1761 57.1034 10.7529C56.4917 11.3314 56.185 12.0806 56.185 13.0003C56.185 13.9201 56.4917 14.6757 57.1034 15.2542C57.7217 15.8246 58.4501 16.1171 59.2901 16.1171C60.1817 16.1171 60.9317 15.8246 61.5234 15.2477C61.9134 14.8658 62.1351 14.3393 62.1934 13.6666H59.2901V12.7273H63.1634C63.2101 12.9304 63.2234 13.1271 63.2234 13.3172Z" fill="black" stroke="black" stroke-width="0.16" stroke-miterlimit="10"/>
<path d="M69.3676 10.0606H65.7292V12.5306H69.0092V13.4699H65.7292V15.9399H69.3676V16.897H64.6992V9.10352H69.3676V10.0606Z" fill="black" stroke="black" stroke-width="0.16" stroke-miterlimit="10"/>
<path d="M73.705 16.897H72.675V10.0606H70.4434V9.10352H75.9384V10.0606H73.705V16.897Z" fill="black" stroke="black" stroke-width="0.16" stroke-miterlimit="10"/>
<path d="M79.916 16.897V9.10352H80.9444V16.897H79.916Z" fill="black" stroke="black" stroke-width="0.16" stroke-miterlimit="10"/>
<path d="M85.5019 16.897H84.4802V10.0606H82.2402V9.10352H87.7419V10.0606H85.5019V16.897Z" fill="black" stroke="black" stroke-width="0.16" stroke-miterlimit="10"/>
<path d="M98.1446 15.8944C97.3563 16.6826 96.3796 17.0758 95.2146 17.0758C94.0429 17.0758 93.0663 16.6826 92.2779 15.8944C91.4913 15.1079 91.0996 14.1427 91.0996 13.0003C91.0996 11.8579 91.4913 10.8927 92.2779 10.1062C93.0663 9.31805 94.0429 8.9248 95.2146 8.9248C96.3729 8.9248 97.3496 9.31805 98.138 10.1127C98.9313 10.9057 99.3229 11.8644 99.3229 13.0003C99.3229 14.1427 98.9313 15.1079 98.1446 15.8944ZM93.0396 15.2412C93.6329 15.8246 94.3546 16.1171 95.2146 16.1171C96.0679 16.1171 96.7963 15.8246 97.3829 15.2412C97.9746 14.6578 98.2746 13.9087 98.2746 13.0003C98.2746 12.0919 97.9746 11.3428 97.3829 10.7594C96.7963 10.1761 96.0679 9.88355 95.2146 9.88355C94.3546 9.88355 93.6329 10.1761 93.0396 10.7594C92.4479 11.3428 92.1479 12.0919 92.1479 13.0003C92.1479 13.9087 92.4479 14.6578 93.0396 15.2412Z" fill="black" stroke="black" stroke-width="0.16" stroke-miterlimit="10"/>
<path d="M100.768 16.897V9.10352H102.018L105.904 15.1648H105.949L105.904 13.6665V9.10352H106.933V16.897H105.859L101.789 10.5368H101.744L101.789 12.0415V16.897H100.768Z" fill="black" stroke="black" stroke-width="0.16" stroke-miterlimit="10"/>
<path d="M90.8474 28.2783C87.7157 28.2783 85.1574 30.602 85.1574 33.8082C85.1574 36.9883 87.7157 39.3364 90.8474 39.3364C93.9857 39.3364 96.544 36.9883 96.544 33.8082C96.544 30.602 93.9857 28.2783 90.8474 28.2783ZM90.8474 37.1589C89.129 37.1589 87.6507 35.776 87.6507 33.8082C87.6507 31.8143 89.129 30.4558 90.8474 30.4558C92.5657 30.4558 94.0507 31.8143 94.0507 33.8082C94.0507 35.776 92.5657 37.1589 90.8474 37.1589ZM78.4324 28.2783C75.294 28.2783 72.7424 30.602 72.7424 33.8082C72.7424 36.9883 75.294 39.3364 78.4324 39.3364C81.569 39.3364 84.1224 36.9883 84.1224 33.8082C84.1224 30.602 81.569 28.2783 78.4324 28.2783ZM78.4324 37.1589C76.7124 37.1589 75.229 35.776 75.229 33.8082C75.229 31.8143 76.7124 30.4558 78.4324 30.4558C80.1507 30.4558 81.629 31.8143 81.629 33.8082C81.629 35.776 80.1507 37.1589 78.4324 37.1589ZM63.659 29.9732V32.3229H69.414C69.2457 33.6359 68.7957 34.6012 68.1057 35.2739C67.2657 36.0864 65.9574 36.9883 63.659 36.9883C60.1174 36.9883 57.344 34.2014 57.344 30.7483C57.344 27.2952 60.1174 24.5083 63.659 24.5083C65.574 24.5083 66.9674 25.2379 67.9957 26.1837L69.694 24.5278C68.2557 23.1888 66.3424 22.1602 63.659 22.1602C58.8024 22.1602 54.7207 26.013 54.7207 30.7483C54.7207 35.4835 58.8024 39.3364 63.659 39.3364C66.284 39.3364 68.2557 38.4979 69.8057 36.9249C71.394 35.3763 71.889 33.1988 71.889 31.4405C71.889 30.8945 71.8424 30.3924 71.759 29.9732H63.659ZM124.069 31.7948C123.601 30.5582 122.156 28.2783 119.212 28.2783C116.296 28.2783 113.867 30.5192 113.867 33.8082C113.867 36.9054 116.271 39.3364 119.492 39.3364C122.097 39.3364 123.601 37.7878 124.219 36.8859L122.286 35.6298C121.641 36.5495 120.762 37.1589 119.492 37.1589C118.231 37.1589 117.326 36.595 116.746 35.4835L124.331 32.4237L124.069 31.7948ZM116.336 33.6359C116.271 31.5039 118.034 30.4119 119.297 30.4119C120.287 30.4119 121.127 30.8945 121.407 31.5852L116.336 33.6359ZM110.171 39H112.664V22.75H110.171V39ZM106.087 29.51H106.004C105.444 28.8633 104.376 28.2783 103.022 28.2783C100.182 28.2783 97.5857 30.7093 97.5857 33.826C97.5857 36.9249 100.182 39.3364 103.022 39.3364C104.376 39.3364 105.444 38.7465 106.004 38.0803H106.087V38.8733C106.087 40.9874 104.929 42.1233 103.061 42.1233C101.537 42.1233 100.592 41.0508 100.202 40.1489L98.034 41.0313C98.659 42.497 100.314 44.3008 103.061 44.3008C105.984 44.3008 108.451 42.6238 108.451 38.5434V28.6147H106.087V29.51ZM103.236 37.1589C101.517 37.1589 100.079 35.7565 100.079 33.826C100.079 31.8777 101.517 30.4558 103.236 30.4558C104.929 30.4558 106.264 31.8777 106.264 33.826C106.264 35.7565 104.929 37.1589 103.236 37.1589ZM135.742 22.75H129.779V39H132.266V32.8429H135.742C138.504 32.8429 141.212 30.8945 141.212 27.7957C141.212 24.6984 138.497 22.75 135.742 22.75ZM135.807 30.5825H132.266V25.0104H135.807C137.664 25.0104 138.724 26.5135 138.724 27.7957C138.724 29.0534 137.664 30.5825 135.807 30.5825ZM151.179 28.2474C149.382 28.2474 147.514 29.0209 146.746 30.7353L148.952 31.6372C149.427 30.7353 150.301 30.4428 151.224 30.4428C152.514 30.4428 153.822 31.1984 153.842 32.5325V32.7032C153.392 32.4497 152.429 32.0743 151.244 32.0743C148.867 32.0743 146.446 33.3499 146.446 35.7305C146.446 37.908 148.392 39.3104 150.581 39.3104C152.254 39.3104 153.177 38.5743 153.757 37.7179H153.842V38.974H156.244V32.7405C156.244 29.8594 154.037 28.2474 151.179 28.2474ZM150.879 37.1524C150.066 37.1524 148.932 36.7592 148.932 35.776C148.932 34.5183 150.346 34.0357 151.569 34.0357C152.664 34.0357 153.177 34.2713 153.842 34.5817C153.647 36.0864 152.319 37.1524 150.879 37.1524ZM164.994 28.6033L162.136 35.6477H162.051L159.096 28.6033H156.414L160.854 38.4475L158.321 43.9254H160.919L167.761 28.6033H164.994ZM142.579 39H145.072V22.75H142.579V39Z" fill="black"/>
</svg>
