<svg width="40" height="40" viewBox="0 0 40 40" fill="none" xmlns="http://www.w3.org/2000/svg">
<path d="M20.0054 23.1123C18.2872 23.1123 16.8937 21.7193 16.8937 20.0018C16.8937 18.2843 18.2872 16.8913 20.0054 16.8913C21.7236 16.8913 23.1171 18.2843 23.1171 20.0018C23.1171 21.7193 21.7236 23.1123 20.0054 23.1123Z" fill="#0D0D0D"/>
<path fill-rule="evenodd" clip-rule="evenodd" d="M23.7775 12.4024C22.7962 12.3587 22.5007 12.3477 20.0055 12.3477C17.5103 12.3477 17.2148 12.3587 16.2335 12.4024C15.3251 12.4425 14.829 12.5957 14.5007 12.7233C14.0666 12.8911 13.7565 13.0916 13.4282 13.4198C13.1035 13.7444 12.8992 14.058 12.7314 14.4919C12.6037 14.8201 12.4505 15.3124 12.4104 16.224C12.3666 17.2049 12.3557 17.5003 12.3557 19.9945C12.3557 22.4851 12.3666 22.7805 12.4104 23.7651C12.4505 24.673 12.6037 25.169 12.7314 25.4972C12.8992 25.9311 13.0999 26.2411 13.4282 26.5693C13.7528 26.8938 14.0666 27.098 14.5007 27.2657C14.829 27.3934 15.3215 27.5465 16.2335 27.5866C17.2148 27.6304 17.5103 27.6413 20.0055 27.6413C22.497 27.6413 22.7925 27.6304 23.7775 27.5866C24.6858 27.5465 25.1819 27.3934 25.5103 27.2657C25.9444 27.098 26.2544 26.8974 26.5828 26.5693C26.9074 26.2447 27.1117 25.9311 27.2795 25.4972C27.4072 25.169 27.5604 24.6767 27.6005 23.7651C27.6443 22.7841 27.6553 22.4888 27.6553 19.9945C27.6553 17.5039 27.6443 17.2086 27.6005 16.224C27.5604 15.316 27.4072 14.8201 27.2795 14.4919C27.1117 14.058 26.9111 13.748 26.5828 13.4198C26.2581 13.0953 25.9444 12.8911 25.5103 12.7233C25.1819 12.5957 24.6895 12.4425 23.7775 12.4024ZM20.0054 15.2066C17.357 15.2066 15.2083 17.3544 15.2083 20.0018C15.2083 22.6492 17.357 24.797 20.0054 24.797C22.6538 24.797 24.8025 22.6492 24.8025 20.0018C24.8025 17.3544 22.6538 15.2066 20.0054 15.2066ZM24.9923 16.1363C25.6088 16.1363 26.1122 15.6367 26.1122 15.0168C26.1122 14.4005 25.6088 13.8973 24.9923 13.8973C24.3758 13.8973 23.8724 14.3969 23.8724 15.0168C23.8724 15.633 24.3722 16.1363 24.9923 16.1363Z" fill="#0D0D0D"/>
<path fill-rule="evenodd" clip-rule="evenodd" d="M20 4C11.1634 4 4 11.1634 4 20C4 28.8366 11.1634 36 20 36C28.8366 36 36 28.8366 36 20C36 11.1634 28.8366 4 20 4ZM16.1569 10.7214C17.1528 10.6776 17.4701 10.6667 20.0055 10.6667C22.5408 10.6667 22.8582 10.6776 23.8577 10.725C24.85 10.7688 25.5285 10.9292 26.1231 11.159C26.736 11.396 27.2576 11.7169 27.7757 12.2347C28.2973 12.7525 28.6147 13.2739 28.8445 13.8939C29.0743 14.4846 29.2348 15.1665 29.2786 16.1584C29.3224 17.1539 29.3333 17.4711 29.3333 20.0055C29.3333 22.5398 29.3224 22.8571 29.2786 23.8526C29.2348 24.8444 29.0743 25.5227 28.8445 26.1171C28.6074 26.7297 28.2864 27.2512 27.7684 27.769C27.2503 28.2868 26.7287 28.6077 26.1158 28.8447C25.5249 29.0744 24.8427 29.2349 23.8504 29.2786C22.8545 29.3224 22.5372 29.3333 20.0018 29.3333C17.4665 29.3333 17.1491 29.3224 16.1532 29.2786C15.161 29.2349 14.4824 29.0744 13.8878 28.8447C13.275 28.6077 12.7533 28.2868 12.2353 27.769C11.7136 27.2512 11.3963 26.7297 11.1555 26.1134C10.9257 25.5227 10.7652 24.8408 10.7214 23.8489C10.6776 22.8534 10.6667 22.5362 10.6667 20.0018C10.6667 17.4675 10.6776 17.1502 10.7214 16.1511C10.7652 15.1592 10.9257 14.481 11.1555 13.8866C11.3963 13.2739 11.7136 12.7525 12.2353 12.2347C12.7533 11.7132 13.275 11.396 13.8915 11.1553C14.4824 10.9256 15.1646 10.7651 16.1569 10.7214Z" fill="#0D0D0D"/>
</svg>
