<svg width="40" height="40" viewBox="0 0 40 40" fill="none" xmlns="http://www.w3.org/2000/svg">
<g clip-path="url(#clip0_1377_44116)">
<path fill-rule="evenodd" clip-rule="evenodd" d="M20 36C28.8366 36 36 28.8366 36 20C36 11.1634 28.8366 4 20 4C11.1634 4 4 11.1634 4 20C4 28.8366 11.1634 36 20 36ZM19.2322 24.5079H27.5482C29.2705 24.5079 30.6667 23.007 30.6667 21.1556C30.6667 19.3041 29.2705 17.8032 27.5482 17.8032C27.1834 17.8032 26.8333 17.8705 26.5079 17.9942C26.4641 15.4121 24.5033 13.3333 22.0908 13.3333C21.0006 13.3333 20.0027 13.7578 19.2322 14.4614V24.5079ZM17.4603 15.3651H18.4762V24.5079H17.4603V15.3651ZM15.4286 16.381H16.4444V24.5079H15.4286V16.381ZM13.3968 18.4127H14.4127V24.5079H13.3968V18.4127ZM11.3651 17.3968H12.381V24.5079H11.3651V17.3968ZM9.33333 19.4286H10.3492V24.5079H9.33333V19.4286Z" fill="#0D0D0D"/>
</g>
<defs>
<clipPath id="clip0_1377_44116">
<rect width="32" height="32" fill="white" transform="translate(4 4)"/>
</clipPath>
</defs>
</svg>
