<svg width="40" height="40" viewBox="0 0 40 40" fill="none" xmlns="http://www.w3.org/2000/svg">
<path fill-rule="evenodd" clip-rule="evenodd" d="M20 36C28.8366 36 36 28.8366 36 20C36 11.1634 28.8366 4 20 4C11.1634 4 4 11.1634 4 20C4 28.8366 11.1634 36 20 36ZM25.9614 26.7212C26.417 26.9814 27.0002 26.86 27.2735 26.4262C27.5469 25.9925 27.4011 25.4373 26.9455 25.1771C22.9363 22.8349 17.943 22.297 12.1297 23.5636C11.6194 23.6677 11.3096 24.1534 11.419 24.6392C11.5283 25.125 12.0386 25.42 12.5488 25.3159C17.8701 24.1708 22.3714 24.6392 25.9614 26.7212ZM27.4922 22.8522C28.0572 23.1645 28.7861 23.0084 29.1323 22.4705C29.4786 21.9327 29.2964 21.2387 28.7679 20.9264C24.048 18.1679 17.1594 17.4045 11.6194 19.0006C10.9816 19.1741 10.6354 19.7987 10.8176 20.4059C10.9998 20.9958 11.6559 21.3255 12.2937 21.152C17.1412 19.7467 23.3919 20.4406 27.4922 22.8522ZM11.5648 16.6584C16.2665 15.3052 24.376 15.5654 29.2964 18.3414C29.9706 18.7404 30.8454 18.5148 31.2281 17.8556C31.629 17.2136 31.4103 16.3809 30.736 15.9992C25.0867 12.8068 16.1207 12.4946 10.7265 14.056C9.97931 14.2816 9.54194 15.0449 9.77885 15.7563C10.0158 16.485 10.8176 16.884 11.5648 16.6584Z" fill="#0D0D0D"/>
</svg>
