<svg width="40" height="40" viewBox="0 0 40 40" fill="none" xmlns="http://www.w3.org/2000/svg">
<g clip-path="url(#clip0_1377_44122)">
<path fill-rule="evenodd" clip-rule="evenodd" d="M36 20C36 28.8366 28.8366 36 20 36C11.1634 36 4 28.8366 4 20C4 11.1634 11.1634 4 20 4C28.8366 4 36 11.1634 36 20ZM20.4361 15.6445C18.9995 16.242 16.1284 17.4787 11.8227 19.3546C11.1235 19.6327 10.7572 19.9047 10.7239 20.1706C10.6675 20.6201 11.2304 20.7971 11.9969 21.0381C12.1012 21.0709 12.2092 21.1049 12.32 21.1409C13.0741 21.386 14.0885 21.6728 14.6159 21.6842C15.0942 21.6945 15.6281 21.4973 16.2176 21.0926C20.2405 18.377 22.3172 17.0044 22.4476 16.9748C22.5396 16.9539 22.667 16.9276 22.7534 17.0044C22.8398 17.0812 22.8313 17.2265 22.8221 17.2655C22.7664 17.5033 20.5568 19.5574 19.4134 20.6205C19.0569 20.9519 18.8041 21.1869 18.7524 21.2406C18.6366 21.3609 18.5186 21.4746 18.4052 21.584C17.7046 22.2594 17.1792 22.7658 18.4343 23.5929C19.0374 23.9904 19.52 24.319 20.0015 24.6469C20.5273 25.005 21.0518 25.3622 21.7304 25.807C21.9033 25.9203 22.0684 26.038 22.2292 26.1527C22.8412 26.5889 23.3909 26.9809 24.0701 26.9184C24.4648 26.8821 24.8725 26.5109 25.0795 25.4041C25.5688 22.7884 26.5306 17.1209 26.7529 14.7854C26.7723 14.5808 26.7478 14.3189 26.7282 14.204C26.7085 14.089 26.6674 13.9252 26.518 13.804C26.341 13.6604 26.0678 13.6301 25.9456 13.6323C25.3901 13.6421 24.5378 13.9384 20.4361 15.6445Z" fill="#0D0D0D"/>
</g>
<defs>
<clipPath id="clip0_1377_44122">
<rect width="32" height="32" fill="white" transform="translate(4 4)"/>
</clipPath>
</defs>
</svg>
