<svg width="40" height="40" viewBox="0 0 40 40" fill="none" xmlns="http://www.w3.org/2000/svg">
<g clip-path="url(#clip0_1377_44119)">
<path d="M17.9336 16.9411V22.5622L23.3359 19.7615L17.9336 16.9411Z" fill="#0D0D0D"/>
<path fill-rule="evenodd" clip-rule="evenodd" d="M20 4C11.1634 4 4 11.1634 4 20C4 28.8366 11.1634 36 20 36C28.8366 36 36 28.8366 36 20C36 11.1634 28.8366 4 20 4ZM29.0039 13.9841C29.6055 14.5896 29.8008 15.9685 29.8008 15.9685C29.8008 15.9685 30 17.5896 30 19.2068V20.7224C30 22.3435 29.8008 23.9607 29.8008 23.9607C29.8008 23.9607 29.6055 25.3396 29.0039 25.9451C28.3175 26.6631 27.5582 26.7373 27.1289 26.7793C27.0818 26.7839 27.0386 26.7881 27 26.7927C24.2031 26.9919 20 26.9997 20 26.9997C20 26.9997 14.8008 26.9529 13.1992 26.8005C13.1213 26.7855 13.0264 26.7739 12.9188 26.7608C12.4113 26.6989 11.6207 26.6025 10.9922 25.9451C10.3945 25.3396 10.1992 23.9607 10.1992 23.9607C10.1992 23.9607 10 22.3396 10 20.7224V19.2068C10 17.5896 10.2031 15.9685 10.2031 15.9685C10.2031 15.9685 10.3945 14.5896 10.9961 13.9841C11.6825 13.2661 12.4418 13.1919 12.8711 13.1499C12.9182 13.1453 12.9614 13.1411 13 13.1365C15.7969 12.9333 19.9961 12.9333 19.9961 12.9333H20.0039C20.0039 12.9333 24.2031 12.9333 27 13.1365C27.0386 13.1411 27.0818 13.1453 27.1289 13.1499C27.5582 13.1919 28.3175 13.2661 29.0039 13.9841Z" fill="#0D0D0D"/>
</g>
<defs>
<clipPath id="clip0_1377_44119">
<rect width="32" height="32" fill="white" transform="translate(4 4)"/>
</clipPath>
</defs>
</svg>
