<svg width="24" height="24" viewBox="0 0 24 24" fill="none" xmlns="http://www.w3.org/2000/svg">
<path fill-rule="evenodd" clip-rule="evenodd" d="M12 0C5.37258 0 0 5.37258 0 12C0 18.6274 5.37258 24 12 24C18.6274 24 24 18.6274 24 12C24 5.37258 18.6274 0 12 0ZM11.9983 13.8408C12.6618 13.8408 13.2239 14.0572 13.544 14.3949C13.711 14.5711 13.7993 14.7518 13.8271 15.0091C13.881 15.5073 13.8507 15.9363 13.7923 16.6223C13.7367 17.276 13.6311 18.1476 13.4933 19.0354C13.3952 19.6672 13.3156 20.0082 13.243 20.2523C13.1254 20.648 12.6857 20.9941 11.9983 20.9941C11.3107 20.9941 10.8711 20.6481 10.7534 20.2523C10.6809 20.0082 10.6012 19.6672 10.5031 19.0354C10.3653 18.1476 10.2597 17.276 10.2041 16.6223C10.1457 15.9364 10.1155 15.5074 10.1694 15.0091C10.1972 14.7517 10.2855 14.5711 10.4524 14.3949C10.7725 14.0572 11.3346 13.8408 11.9983 13.8408ZM11.9999 13.1337C11.0359 13.1337 10.2545 12.3522 10.2545 11.3883C10.2545 10.4243 11.0359 9.64279 11.9999 9.64279C12.9639 9.64279 13.7454 10.4243 13.7454 11.3883C13.7454 12.3522 12.9639 13.1337 11.9999 13.1337ZM4.50059 11.9053C4.5511 7.82338 7.89607 4.51164 11.9783 4.50003C16.1237 4.48817 19.4998 7.8572 19.5 12.0001C19.5 15.266 17.4015 18.0505 14.4822 19.0774C14.4106 19.1024 14.338 19.043 14.3494 18.968C14.3879 18.7115 14.4244 18.4536 14.4578 18.2C14.4696 18.1104 14.5264 18.0329 14.6092 17.9967C16.9207 16.9871 18.5404 14.6793 18.5404 12C18.5404 8.37575 15.5772 5.43059 11.9462 5.45991C8.39453 5.48865 5.49429 8.38414 5.46005 11.9358C5.43394 14.6422 7.0607 16.9787 9.39035 17.9964C9.47316 18.0326 9.53028 18.1099 9.54215 18.1996C9.57563 18.4533 9.61207 18.7113 9.65072 18.968C9.662 19.043 9.58936 19.1024 9.51782 19.0773C6.57037 18.0405 4.45957 15.212 4.50059 11.9053ZM16.068 12.0023C16.068 9.70772 14.1569 7.85118 11.8427 7.94077C9.71353 8.02324 7.99625 9.76323 7.94014 11.8932C7.90827 13.1035 8.40868 14.1999 9.22354 14.9649C9.29042 15.0277 9.32636 15.117 9.32119 15.2088C9.3055 15.4879 9.31118 15.7591 9.32983 16.0656C9.33483 16.1471 9.24355 16.1993 9.17616 16.1533C7.83403 15.2364 6.95712 13.6864 6.9795 11.9368C7.01357 9.27664 9.14633 7.08489 11.8047 6.98182C14.6652 6.87096 17.0277 9.16595 17.0277 12.0023C17.0277 13.7249 16.1561 15.2476 14.831 16.1531C14.7635 16.1991 14.6719 16.147 14.6769 16.0654C14.6955 15.7591 14.7013 15.4879 14.6855 15.2088C14.6803 15.117 14.7164 15.0276 14.7834 14.9647C15.5736 14.2228 16.068 13.1692 16.068 12.0023Z" fill="black"/>
</svg>
