<svg width="24" height="24" viewBox="0 0 24 24" fill="none" xmlns="http://www.w3.org/2000/svg">
<g clip-path="url(#clip0_1175_32956)">
<path fill-rule="evenodd" clip-rule="evenodd" d="M15.4626 6.00691L12.5015 4.29051C12.1913 4.11072 11.8087 4.11072 11.4985 4.29051L8.53743 6.00691L5.56991 7.71085C5.25871 7.88954 5.06712 8.22127 5.06785 8.58011L5.07487 11.9998L5.06785 15.4195C5.06712 15.7784 5.25871 16.1101 5.56991 16.2888L8.53743 17.9927L11.4985 19.7091C11.8087 19.8889 12.1913 19.8889 12.5015 19.7091L15.4626 17.9927L18.4301 16.2888C18.7413 16.1101 18.9329 15.7784 18.9321 15.4195L18.9251 11.9998L18.9321 8.58011C18.9329 8.22127 18.7413 7.88954 18.4301 7.71085L15.4626 6.00691ZM13.3922 11.6352L13.3908 13.3354C13.3871 13.6813 13.1754 13.9035 12.8612 13.9083C12.5566 13.9134 12.3268 13.6968 12.3136 13.3787L12.3099 12.5004C12.3071 12.2692 12.1958 12.1421 12.0054 12.139C11.8149 12.1359 11.6999 12.2627 11.6954 12.4945L11.6932 13.2595C11.687 13.6138 11.4642 13.8453 11.1402 13.8416C10.8258 13.838 10.6115 13.6166 10.6047 13.273L10.6061 12.2813C10.6056 11.95 10.5133 11.8065 10.2968 11.8037C10.0732 11.8009 9.97051 11.9545 9.96995 12.2981L9.9722 14.5088C9.97445 14.7428 9.88838 14.9138 9.68363 15.0173C9.32363 15.199 8.90457 14.9481 8.89838 14.5408L8.89276 12.8691C8.89135 12.7718 8.87251 12.6455 8.81035 12.5856C8.7406 12.5186 8.59801 12.4655 8.51504 12.4919C8.42109 12.5196 8.34506 12.6362 8.28348 12.7307L8.2802 12.7358C8.26261 12.7657 8.2646 12.8088 8.26663 12.8529C8.26785 12.8793 8.26908 12.9061 8.26613 12.9307C8.23098 13.2133 8.00457 13.4195 7.73176 13.4201C7.46345 13.4209 7.20807 13.2071 7.20076 12.929L7.2002 11.2288C7.20751 10.9543 7.4626 10.7411 7.73288 10.7378C8.00007 10.735 8.23351 10.9476 8.26726 11.2271C8.27054 11.2542 8.27043 11.2818 8.27033 11.3095C8.27021 11.3388 8.2701 11.3681 8.27401 11.3967C8.30213 11.5874 8.41463 11.687 8.59745 11.6816C8.77463 11.676 8.89051 11.5691 8.89501 11.3734L8.89951 10.2962C8.90682 9.90302 9.25951 9.66058 9.62513 9.78827C9.84113 9.86421 9.96263 10.0206 9.96995 10.2551L9.97276 10.677C9.9857 10.9006 10.1092 11.019 10.3086 11.0145C10.4984 11.0078 10.5997 10.9006 10.6028 10.6776L10.6067 9.45893C10.6194 8.99768 11.0651 8.75524 11.4499 8.99205C11.6394 9.10849 11.6974 9.28849 11.696 9.50055L11.6943 11.0024C11.6934 11.1706 11.7421 11.3011 11.9238 11.3413C12.1451 11.3903 12.3049 11.2626 12.3091 11.0179L12.3136 9.88446C12.3226 9.5374 12.5684 9.32196 12.9076 9.35008C13.1979 9.37202 13.3877 9.58071 13.3914 9.90583L13.3922 11.6352ZM15.1039 12.2363L15.103 13.1987C15.098 13.5278 14.8977 13.7443 14.5906 13.7621C14.2942 13.7789 14.0337 13.5714 14.0259 13.2552L14.0222 11.2176C14.0298 10.8927 14.2689 10.7063 14.5886 10.7189C14.898 10.731 15.0985 10.9462 15.1025 11.273L15.1039 12.2363ZM15.7344 12.5035L15.7353 12.2492C15.7516 11.9623 15.9603 11.7542 16.2376 11.7373C16.5273 11.7199 16.7782 11.9179 16.8057 12.2104C16.8243 12.4061 16.8254 12.6041 16.8063 12.8027C16.7776 13.0989 16.5377 13.2828 16.2348 13.2662C15.949 13.2505 15.7496 13.0488 15.7359 12.7583C15.7327 12.7 15.7335 12.6413 15.7343 12.5827C15.7347 12.5565 15.7344 12.5296 15.7344 12.5035Z" fill="black"/>
<path fill-rule="evenodd" clip-rule="evenodd" d="M12 0C5.37258 0 0 5.37258 0 12C0 18.6274 5.37258 24 12 24C18.6274 24 24 18.6274 24 12C24 5.37258 18.6274 0 12 0ZM13.0028 3.5812C12.3824 3.22163 11.6171 3.22163 10.9968 3.5812L8.10439 5.2578L5.20626 6.92189C4.58387 7.27926 4.20068 7.94272 4.20215 8.66041L4.20901 11.9998L4.20215 15.3392C4.20068 16.0569 4.58387 16.7204 5.20626 17.0777L8.10439 18.7418L10.9968 20.4184C11.6171 20.778 12.3824 20.778 13.0028 20.4184L15.8952 18.7418L18.7933 17.0777C19.4157 16.7204 19.7989 16.0569 19.7974 15.3392L19.7905 11.9998L19.7974 8.66041C19.7989 7.94272 19.4157 7.27926 18.7933 6.92189L15.8952 5.2578L13.0028 3.5812Z" fill="black"/>
</g>
<defs>
<clipPath id="clip0_1175_32956">
<rect width="24" height="24" fill="white"/>
</clipPath>
</defs>
</svg>
