<svg width="24" height="24" viewBox="0 0 24 24" fill="none" xmlns="http://www.w3.org/2000/svg">
<path d="M11.9998 9.89938C13.1596 9.89938 14.0998 10.8396 14.0998 11.9994C14.0998 13.1592 13.1596 14.0994 11.9998 14.0994C10.84 14.0994 9.89982 13.1592 9.89982 11.9994C9.89982 10.8396 10.84 9.89938 11.9998 9.89938Z" fill="black"/>
<path fill-rule="evenodd" clip-rule="evenodd" d="M12 0C5.37258 0 0 5.37258 0 12C0 18.6274 5.37258 24 12 24C18.6274 24 24 18.6274 24 12C24 5.37258 18.6274 0 12 0ZM13.7497 4.5013C12.0573 4.10634 10.2811 4.29551 8.70987 5.03804C7.13862 5.78057 5.86476 7.03279 5.09542 8.5911C4.32608 10.1494 4.10651 11.9221 4.47242 13.621C4.83832 15.32 5.76817 16.8451 7.11079 17.9485C8.45341 19.052 10.1298 19.6688 11.8674 19.6987C13.605 19.7285 15.3016 19.1698 16.6814 18.1132C16.9883 17.8781 17.0466 17.4387 16.8116 17.1318C16.5765 16.8249 16.1372 16.7666 15.8302 17.0016C14.7013 17.8661 13.3132 18.3233 11.8915 18.2989C10.4698 18.2744 9.09819 17.7698 7.9997 16.8669C6.9012 15.9641 6.14042 14.7163 5.84104 13.3263C5.54166 11.9362 5.72131 10.4858 6.35077 9.21086C6.98023 7.93589 8.02247 6.91134 9.30804 6.30382C10.5936 5.69629 12.0469 5.54152 13.4316 5.86467C14.8163 6.1878 16.0509 6.96985 16.9348 8.08366C17.8186 9.19747 18.2997 10.5775 18.2998 11.9994V12.6994C18.2998 13.0706 18.1523 13.4268 17.8898 13.6893C17.6272 13.9519 17.2711 14.0994 16.8998 14.0994C16.5286 14.0994 16.1724 13.9519 15.9099 13.6893C15.6473 13.4268 15.4998 13.0706 15.4998 12.6994V9.19938C15.4998 8.81278 15.1864 8.49938 14.7998 8.49938C14.4133 8.49938 14.0999 8.81264 14.0998 9.19913C13.5148 8.75974 12.7877 8.49938 11.9998 8.49938C10.0668 8.49938 8.49982 10.0664 8.49982 11.9994C8.49982 13.9324 10.0668 15.4994 11.9998 15.4994C13.0415 15.4994 13.9769 15.0443 14.618 14.3221C14.7079 14.4486 14.8088 14.5681 14.9199 14.6793C15.445 15.2044 16.1572 15.4994 16.8998 15.4994C17.6425 15.4994 18.3546 15.2044 18.8797 14.6793C19.4048 14.1542 19.6998 13.442 19.6998 12.6994V11.9994C19.6997 10.2615 19.1117 8.57471 18.0315 7.21341C16.9511 5.8521 15.4422 4.89625 13.7497 4.5013Z" fill="black"/>
</svg>
