<svg width="24" height="24" viewBox="0 0 24 24" fill="none" xmlns="http://www.w3.org/2000/svg">
<g clip-path="url(#clip0_1175_32901)">
<path fill-rule="evenodd" clip-rule="evenodd" d="M12 0C5.37258 0 0 5.37258 0 12C0 18.6274 5.37258 24 12 24C18.6274 24 24 18.6274 24 12C24 5.37258 18.6274 0 12 0ZM11.0244 6.3452C11.0244 6.88379 11.4611 7.3202 12 7.3202C12.5389 7.3202 12.9756 6.88379 12.9756 6.3452V5.1752C12.9756 4.63661 12.5389 4.2002 12 4.2002C11.4611 4.2002 11.0244 4.63661 11.0244 5.1752V6.3452ZM11.0244 14.535C11.0244 15.0736 11.4611 15.51 12 15.51C12.539 15.51 12.9756 15.0736 12.9756 14.535V9.46499C12.9756 8.9264 12.539 8.48999 12 8.48999C11.4611 8.48999 11.0244 8.9264 11.0244 9.46499V14.535ZM12 19.8002C11.4611 19.8002 11.0244 19.3638 11.0244 18.8252V17.6552C11.0244 17.1166 11.4611 16.6802 12 16.6802C12.539 16.6802 12.9756 17.1166 12.9756 17.6552V18.8252C12.9756 19.3638 12.539 19.8002 12 19.8002ZM7.51221 15.7051C7.51221 16.2437 7.94889 16.6801 8.48782 16.6801C9.02674 16.6801 9.46343 16.2437 9.46343 15.7051V14.5351C9.46343 13.9965 9.02674 13.5601 8.48782 13.5601C7.94889 13.5601 7.51221 13.9965 7.51221 14.5351V15.7051ZM15.5122 10.4403C14.9733 10.4403 14.5366 10.0039 14.5366 9.46531V8.29531C14.5366 7.75672 14.9733 7.32031 15.5122 7.32031C16.0512 7.32031 16.4878 7.75672 16.4878 8.29531V9.46531C16.4878 10.0039 16.0512 10.4403 15.5122 10.4403ZM7.51221 11.4154C7.51221 11.954 7.94889 12.3904 8.48782 12.3904C9.02674 12.3904 9.46343 11.954 9.46343 11.4154V7.90542C9.46343 7.36683 9.02674 6.93042 8.48782 6.93042C7.94889 6.93042 7.51221 7.36683 7.51221 7.90542V11.4154ZM15.5122 17.0701C14.9733 17.0701 14.5366 16.6337 14.5366 16.0951V12.5851C14.5366 12.0465 14.9733 11.6101 15.5122 11.6101C16.0512 11.6101 16.4878 12.0465 16.4878 12.5851V16.0951C16.4878 16.6337 16.0512 17.0701 15.5122 17.0701ZM4 12.5854C4 13.124 4.43668 13.5604 4.97561 13.5604C5.51454 13.5604 5.95122 13.124 5.95122 12.5854V11.4154C5.95122 10.8768 5.51454 10.4404 4.97561 10.4404C4.43668 10.4404 4 10.8768 4 11.4154V12.5854ZM19.0244 13.5604C18.4855 13.5604 18.0488 13.124 18.0488 12.5854V11.4154C18.0488 10.8768 18.4855 10.4404 19.0244 10.4404C19.5634 10.4404 20 10.8768 20 11.4154V12.5854C20 13.124 19.5634 13.5604 19.0244 13.5604Z" fill="currentColor"/>
</g>
<defs>
<clipPath id="clip0_1175_32901">
<rect width="24" height="24" fill="currentColor"/>
</clipPath>
</defs>
</svg>
