<svg width="24" height="24" viewBox="0 0 24 24" fill="none" xmlns="http://www.w3.org/2000/svg">
<path d="M12.0041 14.3342C10.7154 14.3342 9.67027 13.2895 9.67027 12.0014C9.67027 10.7132 10.7154 9.66849 12.0041 9.66849C13.2927 9.66849 14.3378 10.7132 14.3378 12.0014C14.3378 13.2895 13.2927 14.3342 12.0041 14.3342Z" fill="currentColor"/>
<path fill-rule="evenodd" clip-rule="evenodd" d="M14.8331 6.30182C14.0971 6.269 13.8755 6.26079 12.0041 6.26079C10.1327 6.26079 9.91108 6.269 9.1751 6.30182C8.49384 6.3319 8.12175 6.44677 7.87551 6.54249C7.54993 6.66829 7.31737 6.81871 7.07114 7.06486C6.82763 7.30826 6.67442 7.54347 6.54856 7.86892C6.4528 8.11506 6.33789 8.48427 6.3078 9.168C6.27497 9.90369 6.26676 10.1252 6.26676 11.9959C6.26676 13.8638 6.27497 14.0854 6.3078 14.8238C6.33789 15.5048 6.4528 15.8767 6.54856 16.1229C6.67442 16.4483 6.8249 16.6808 7.07114 16.9269C7.31464 17.1703 7.54993 17.3235 7.87551 17.4493C8.12175 17.545 8.49111 17.6599 9.1751 17.69C9.91108 17.7228 10.1327 17.731 12.0041 17.731C13.8728 17.731 14.0944 17.7228 14.8331 17.69C15.5144 17.6599 15.8865 17.545 16.1327 17.4493C16.4583 17.3235 16.6908 17.1731 16.9371 16.9269C17.1806 16.6835 17.3338 16.4483 17.4596 16.1229C17.5554 15.8767 17.6703 15.5075 17.7004 14.8238C17.7332 14.0881 17.7414 13.8666 17.7414 11.9959C17.7414 10.128 17.7332 9.90643 17.7004 9.168C17.6703 8.48701 17.5554 8.11506 17.4596 7.86892C17.3338 7.54347 17.1833 7.311 16.9371 7.06486C16.6936 6.82145 16.4583 6.66829 16.1327 6.54249C15.8865 6.44677 15.5171 6.3319 14.8331 6.30182ZM12.0041 8.40496C10.0177 8.40496 8.40625 10.0158 8.40625 12.0014C8.40625 13.9869 10.0177 15.5978 12.0041 15.5978C13.9904 15.5978 15.6019 13.9869 15.6019 12.0014C15.6019 10.0158 13.9904 8.40496 12.0041 8.40496ZM15.7442 9.10219C16.2066 9.10219 16.5842 8.72751 16.5842 8.26258C16.5842 7.80038 16.2066 7.42296 15.7442 7.42296C15.2819 7.42296 14.9043 7.79764 14.9043 8.26258C14.9043 8.72478 15.2791 9.10219 15.7442 9.10219Z" fill="currentColor"/>
<path fill-rule="evenodd" clip-rule="evenodd" d="M12 0C5.37258 0 0 5.37258 0 12C0 18.6274 5.37258 24 12 24C18.6274 24 24 18.6274 24 12C24 5.37258 18.6274 0 12 0ZM9.11765 5.04102C9.86457 5.0082 10.1026 5 12.0041 5C13.9056 5 14.1436 5.0082 14.8933 5.04376C15.6375 5.07658 16.1464 5.19691 16.5923 5.36921C17.052 5.54698 17.4432 5.78765 17.8317 6.17601C18.223 6.56437 18.461 6.95546 18.6334 7.42039C18.8057 7.86345 18.9261 8.37488 18.959 9.11877C18.9918 9.8654 19 10.1033 19 12.0041C19 13.9049 18.9918 14.1428 18.959 14.8894C18.9261 15.6333 18.8057 16.142 18.6334 16.5878C18.4555 17.0473 18.2148 17.4384 17.8263 17.8267C17.4378 18.2151 17.0465 18.4558 16.5869 18.6335C16.1436 18.8058 15.632 18.9262 14.8878 18.959C14.1409 18.9918 13.9029 19 12.0014 19C10.0999 19 9.86183 18.9918 9.11491 18.959C8.37072 18.9262 7.86183 18.8058 7.41587 18.6335C6.95622 18.4558 6.56498 18.2151 6.17647 17.8267C5.78523 17.4384 5.5472 17.0473 5.36662 16.5851C5.19425 16.142 5.07387 15.6306 5.04104 14.8867C5.00821 14.1401 5 13.9021 5 12.0014C5 10.1006 5.00821 9.86267 5.04104 9.1133C5.07387 8.36941 5.19425 7.86071 5.36662 7.41493C5.5472 6.95546 5.78523 6.56437 6.17647 6.17601C6.56498 5.78492 6.95622 5.54698 7.4186 5.36648C7.86183 5.19418 8.37346 5.07384 9.11765 5.04102Z" fill="currentColor"/>
</svg>
