<svg width="72" height="36" viewBox="0 0 72 36" fill="none" xmlns="http://www.w3.org/2000/svg">
<g clip-path="url(#clip0_1578_23850)">
<path d="M17.9493 4.9865C17.6484 7.07839 16.069 8.78109 13.9883 9.34055C16.044 9.70542 16.6206 10.7757 16.2947 12.527C15.9437 14.4487 15.6679 16.2973 16.1442 17.3919H14.991C14.5398 16.3946 14.9158 14.4487 15.1916 12.527C15.5426 10.5568 14.2891 9.92434 11.2557 9.92434H5.76542L4.43673 17.3919H3.30859L6.39216 0.267578H13.161C17.1972 0.267578 18.4507 2.21352 17.9493 4.9865ZM12.9353 1.31352H7.3448L5.96598 8.92704H11.5816C14.6902 8.92704 16.42 7.34596 16.8462 5.13244C17.2724 2.91893 16.2445 1.31352 12.9353 1.31352Z" fill="white"/>
<path d="M29.9584 11.3351H21.6604L17.9501 17.4162H16.7969L27.2509 0.267578H28.4041L32.6409 17.4162H31.4877L29.9584 11.3351ZM29.7077 10.3135L27.5517 1.60542L22.2871 10.3135H29.7077Z" fill="white"/>
<path d="M36.6265 0.364746H41.49C47.7324 0.364746 49.9636 4.08637 49.1112 8.87826C48.2588 13.6702 44.6488 17.3918 38.4065 17.3918H33.543L36.6265 0.364746ZM38.6321 16.4918C43.7965 16.4918 47.1809 13.3539 48.0081 8.90258C48.8354 4.45123 46.5541 1.43502 41.3898 1.43502H37.5792L34.8466 16.4918H38.6321Z" fill="white"/>
<path d="M52.4446 0.267578H53.5476L50.439 17.4162H49.3359L52.4446 0.267578Z" fill="white"/>
<path d="M53.5228 8.9027C54.4253 3.96486 59.2387 0 64.3028 0C69.3668 0 72.7512 3.96486 71.8487 8.9027C70.9462 13.8405 66.1579 17.7568 61.0688 17.7568C55.9796 17.7568 52.6454 13.7919 53.5228 8.9027ZM70.6705 8.9027C71.4727 4.57297 68.6398 1.07027 64.1273 1.07027C59.6147 1.07027 55.5033 4.57297 54.7011 8.9027C53.8989 13.2324 56.7819 16.7108 61.2693 16.7108C65.7568 16.7108 69.9184 13.2081 70.6705 8.9027Z" fill="white"/>
<path d="M3.10863 18.5107H9.50139C13.6128 18.5107 14.6908 20.8459 14.1894 23.6189C13.688 26.3918 11.4318 28.7756 7.54596 28.7756H2.38162L1.12813 35.6351H0L3.10863 18.5107ZM7.8468 27.7297C10.8802 27.7297 12.6351 25.9297 13.0362 23.6432C13.4373 21.3567 12.585 19.5324 9.3259 19.5324H4.06128L2.5571 27.7297H7.8468Z" fill="white"/>
<path d="M16.6711 18.5107H17.7993L14.8912 34.6134H25.0193L24.8438 35.6594H13.5625L16.6711 18.5107Z" fill="white"/>
<path d="M39.81 29.5783H31.5119L27.8016 35.6594H26.6484L37.1025 18.5107H38.2557L42.4924 35.6594H41.3392L39.81 29.5783ZM39.5593 28.5567L37.4033 19.8486L32.1136 28.5567H39.5593Z" fill="white"/>
<path d="M48.9361 19.5567H42.418L42.5935 18.5107H56.7578L56.5823 19.5567H50.0642L47.1311 35.6594H46.0029L48.9361 19.5567Z" fill="white"/>
<path d="M52.8971 27.1215C53.7996 22.208 58.6129 18.2432 63.677 18.2432C68.7411 18.2432 72.1255 22.208 71.223 27.1459C70.3205 32.0837 65.5071 35.9999 60.443 35.9999C55.3789 35.9999 52.0196 32.0351 52.8971 27.1215ZM70.0447 27.1215C70.8469 22.7918 68.014 19.2891 63.5015 19.2891C58.989 19.2891 54.8776 22.7918 54.0753 27.1215C53.2731 31.4513 56.1561 34.9297 60.6436 34.9297C65.131 34.9297 69.2926 31.4513 70.0447 27.1215Z" fill="white"/>
</g>
<defs>
<clipPath id="clip0_1578_23850">
<rect width="72" height="36" fill="white"/>
</clipPath>
</defs>
</svg>
