<svg width="48" height="56" viewBox="0 0 48 56" fill="none" xmlns="http://www.w3.org/2000/svg">
<path d="M10.5628 24.1499C6.10588 27.6628 -0.0437459 29.632 0.000234582 24.1979C0.0568356 17.2776 10.0289 3.3079 22.171 0.365293C29.6664 -1.45136 32.6831 3.79953 32.7963 9.66241C33.0988 25.3068 27.6995 55.6132 12.0203 55.9977C6.30972 56.1378 1.27796 49.7723 5.15245 38.9427C9.02695 28.1132 17.171 19.7747 25.1077 12.5691C28.8132 9.20484 34.2676 3.8476 39.655 3.80029C46.0857 3.74352 48.3861 9.08335 47.9482 12.9691C47.0177 21.222 40.3219 24.1688 33.2897 36.5989C31.2371 40.2273 30.1395 44.6372 32.4636 44.8139C35.2711 45.0278 36.61 41.1012 37.4311 39.6527C38.9211 37.0239 40.185 35.8533 42.2686 35.9017C44.1043 35.9445 45.8753 37.12 45.8103 39.364C45.7568 41.2166 44.1379 42.6166 44.1249 43.8693C44.1119 45.1099 45.1667 45.513 45.9553 45.7764C46.1373 45.837 45.6424 46.0307 45.5331 46.0561C45.0003 46.1783 43.9712 46.2044 43.0786 45.5989C41.3886 44.4525 41.0256 41.8517 40.8237 40.0467C40.7935 39.5759 40.0611 40.5092 39.2194 41.2771C37.581 42.7645 34.8397 46.6518 31.7729 45.6685C29.7161 45.0092 29.0679 41.1477 34.9747 31.8536C37.5611 27.7843 47.8487 12.102 40.2386 8.54441C37.3148 7.17775 33.1803 8.99895 31.8788 9.59466C22.9363 13.6878 15.2928 23.2518 11.8589 31.8434C8.58791 40.0274 10.2251 45.3809 15.7571 43.5158C23.6181 40.8657 29.9219 23.9701 31.026 17.826C33.5524 3.76358 29.3521 -0.46507 21.6528 1.15592C10.8382 3.43317 0.787677 16.7076 0.552859 24.2138C0.45572 27.3233 4.2281 27.0872 6.1533 24.6581C8.42575 21.7909 9.9819 18.6677 11.405 15.2373C12.0322 13.6787 13.9409 12.5675 15.8581 13.6719C15.9472 13.7234 16.758 14.2116 17.0735 14.9829C17.6142 16.3034 16.7824 17.9967 15.8753 19.084C15.3575 19.7047 14.2771 21.2213 10.5624 24.1495L10.5628 24.1499Z" fill="white"/>
</svg>
