<svg width="188" height="48" viewBox="0 0 188 48" fill="none" xmlns="http://www.w3.org/2000/svg">
<path fill-rule="evenodd" clip-rule="evenodd" d="M87.5391 21.7999C85.0262 23.8073 81.5591 24.9326 81.5839 21.8274C81.6158 17.8729 87.2381 9.89023 94.0838 8.20874C97.5202 7.36458 99.2869 9.19104 99.8614 11.7045C101.165 10.8266 102.557 10.1839 103.941 10.1716C107.567 10.1392 108.864 13.1905 108.617 15.4109C108.315 18.1293 106.932 19.8402 105.056 22.1623C103.677 23.8687 102.032 25.905 100.352 28.9136C99.1952 30.987 98.5764 33.507 99.8867 33.608C101.208 33.71 101.952 32.1639 102.431 31.1685C102.526 30.9712 102.611 30.7956 102.687 30.6587C103.527 29.1565 104.24 28.4876 105.415 28.5153C106.45 28.5397 107.448 29.2114 107.412 30.4937C107.395 31.0702 107.117 31.5699 106.866 32.0212C106.656 32.3986 106.465 32.7421 106.461 33.0682C106.454 33.7771 107.049 34.0074 107.493 34.1579C107.596 34.1925 107.317 34.3033 107.255 34.3178C106.955 34.3876 106.375 34.4025 105.871 34.0565C104.919 33.4014 104.714 31.9152 104.6 30.8839C104.588 30.6909 104.372 30.9108 104.076 31.2125C103.959 31.3313 103.83 31.4629 103.696 31.5869C103.518 31.7501 103.318 31.9638 103.098 32.1986C102.172 33.1871 100.894 34.5503 99.4973 34.0963C98.3377 33.7196 97.9722 31.513 101.302 26.2021C101.343 26.137 101.387 26.0668 101.435 25.9917L101.436 25.989C103.081 23.375 108.439 14.8579 104.27 12.8825C102.905 12.2359 101.073 12.8381 100.066 13.2577C100.07 13.3453 100.073 13.4332 100.074 13.5214C100.245 22.4611 97.2008 39.779 88.3608 39.9987C85.1412 40.0787 82.3043 36.4413 84.4887 30.253C86.6731 24.0647 91.2648 19.2999 95.7395 15.1823C95.8843 15.0491 96.0337 14.9105 96.1876 14.7677L96.1893 14.7661C97.1048 13.9169 98.1756 12.9236 99.3301 12.0782C98.7634 8.93768 96.7292 8.03367 93.7916 8.66052C87.6943 9.96181 82.0278 17.5472 81.8955 21.8365C81.8407 23.6133 83.9676 23.4784 85.053 22.0904C86.3342 20.4519 87.2115 18.6673 88.0139 16.707C88.3675 15.8164 89.4436 15.1815 90.5245 15.8125C90.5748 15.8419 91.0319 16.1209 91.2098 16.5617C91.5147 17.3162 91.0457 18.2838 90.5342 18.9052C90.5057 18.9399 90.474 18.9795 90.4383 19.0243C90.1088 19.4372 89.4282 20.2902 87.5389 21.7997L87.5391 21.7999ZM88.2698 26.1962C90.196 21.3118 94.4712 15.8774 99.4798 13.5188C99.5299 14.7976 99.4027 16.3443 99.0762 18.1863C98.4537 21.6972 94.8997 31.3519 90.4676 32.8662C87.3487 33.9319 86.4256 30.8728 88.2698 26.1962Z" fill="currentColor"/>
<path fill-rule="evenodd" clip-rule="evenodd" d="M67.2145 15.9698C62.1597 15.9698 58.7827 20.2677 58.7827 24.9273C58.7827 29.2892 61.9258 31.9698 65.919 31.9698C70.9738 31.9698 74.3508 27.6719 74.3508 23.0123C74.3508 18.6505 71.2077 15.9698 67.2145 15.9698ZM72.7581 23.0552C72.7581 27.0125 70.0183 30.7572 65.9618 30.7572C62.5847 30.7572 60.376 28.3743 60.376 24.9061C60.376 20.9277 63.1158 17.183 67.1723 17.183C70.5494 17.183 72.7581 19.5871 72.7581 23.0552Z" fill="currentColor"/>
<path fill-rule="evenodd" clip-rule="evenodd" d="M29.0914 16.2253H30.7052L34.0401 31.7144H32.5107L31.6185 27.3954H24.27L21.8701 31.7144H20.3407L29.0914 16.2253ZM31.3846 26.2039L29.643 17.6722L24.9277 26.2039H31.3846Z" fill="currentColor"/>
<path fill-rule="evenodd" clip-rule="evenodd" d="M10.7188 16.2253H15.9646C19.1506 16.2253 20.8494 17.587 20.8494 19.9488C20.8494 22.438 19.15 24.1193 16.7712 24.6296L19.0861 31.7144H17.5356L15.3057 24.7992H10.7182L9.50769 31.7144H8L10.7188 16.2253ZM15.1791 23.6084C17.664 23.6084 19.3206 22.3106 19.3206 20.0762C19.3206 18.3739 18.1523 17.459 15.7524 17.459H12.0143L10.931 23.6078H15.1791V23.6084Z" fill="currentColor"/>
<path fill-rule="evenodd" clip-rule="evenodd" d="M43.7673 16.2253H39.137L36.4182 31.7144H42.1529C47.8877 31.7144 51.2009 27.7782 51.2009 23.0123C51.2009 18.8208 48.4399 16.2253 43.7673 16.2253ZM49.6082 23.0981C49.6082 27.1188 47.0383 30.4595 42.2379 30.4595V30.4601H38.1387L40.4325 17.4813H43.5973C47.4633 17.4813 49.6082 19.6088 49.6082 23.0981Z" fill="currentColor"/>
<path d="M55.6178 16.2253H57.1255L54.4067 31.7144H52.899L55.6178 16.2253Z" fill="currentColor"/>
<path fill-rule="evenodd" clip-rule="evenodd" d="M164.432 24.9273C164.432 20.2677 167.809 15.9698 172.864 15.9698C176.857 15.9698 180 18.6505 180 23.0123C180 27.6719 176.623 31.9698 171.568 31.9698C167.575 31.9698 164.432 29.2892 164.432 24.9273ZM171.611 30.7572C175.667 30.7572 178.407 27.0125 178.407 23.0552C178.407 19.5871 176.199 17.183 172.821 17.183C168.765 17.183 166.025 20.9277 166.025 24.9061C166.025 28.3743 168.234 30.7572 171.611 30.7572Z" fill="currentColor"/>
<path d="M153.642 17.4801H158.654L156.148 31.7144H157.657L160.163 17.4801H165.175L165.387 16.2247H153.855L153.642 17.4801Z" fill="currentColor"/>
<path fill-rule="evenodd" clip-rule="evenodd" d="M123.674 16.2253H118.598L115.879 31.7144H117.387L118.492 25.3953H122.718C126.095 25.3953 128.453 23.3952 128.453 20.2888C128.453 17.7144 126.754 16.2253 123.674 16.2253ZM126.902 20.3951C126.902 22.778 125.246 24.2038 122.697 24.2038H118.705L119.894 17.459H123.483C125.777 17.459 126.902 18.4379 126.902 20.3951Z" fill="currentColor"/>
<path d="M133.402 16.2253H131.894L131.895 16.2259L129.176 31.715H137.799L138.011 30.4595H130.917L133.402 16.2253Z" fill="currentColor"/>
<path fill-rule="evenodd" clip-rule="evenodd" d="M147.547 16.2253H149.161L152.496 31.7144H150.966L150.074 27.3954H142.726L140.326 31.7144H138.796L147.547 16.2253ZM149.84 26.2039L148.099 17.6722L143.383 26.2039H149.84Z" fill="currentColor"/>
</svg>
