<?xml version="1.0" encoding="utf-8"?>
<!-- Generator: Adobe Illustrator 24.3.0, SVG Export Plug-In . SVG Version: 6.00 Build 0)  -->
<svg version="1.1" id="Layer_1" xmlns="http://www.w3.org/2000/svg" xmlns:xlink="http://www.w3.org/1999/xlink" x="0px" y="0px"
	 viewBox="0 0 287.2 148" style="enable-background:new 0 0 287.2 148;" xml:space="preserve">
<style type="text/css">
	.st0{fill:#FFFFFF;}
</style>
<g id="Layer_2_1_">
	<g id="Layer_1-2">
		<path class="st0" d="M71.6,20.5c-1.2,8.6-7.5,15.6-15.8,17.9c8.2,1.5,10.5,5.9,9.2,13.1c-1.4,7.9-2.5,15.5-0.6,20h-4.6
			c-1.8-4.1-0.3-12.1,0.8-20c1.4-8.1-3.6-10.7-15.7-10.7H23l-5.3,30.7h-4.5L25.5,1.1h27C68.6,1.1,73.6,9.1,71.6,20.5z M51.6,5.4
			H29.3l-5.5,31.3h22.4c12.4,0,19.3-6.5,21-15.6S64.8,5.4,51.6,5.4z"/>
		<path class="st0" d="M119.5,46.6H86.4l-14.8,25h-4.6l41.7-70.5h4.6l16.9,70.5h-4.6L119.5,46.6z M118.5,42.4l-8.6-35.8L88.9,42.4
			H118.5z"/>
		<path class="st0" d="M146.1,1.5h19.4c24.9,0,33.8,15.3,30.4,35s-17.8,35-42.7,35h-19.4L146.1,1.5z M154.1,67.8
			c20.6,0,34.1-12.9,37.4-31.2s-5.8-30.7-26.4-30.7h-15.2L139,67.8H154.1z"/>
		<path class="st0" d="M209.2,1.1h4.4l-12.4,70.5h-4.4L209.2,1.1z"/>
		<path class="st0" d="M213.5,36.6c3.6-20.3,22.8-36.6,43-36.6s33.7,16.3,30.1,36.6S263.9,73,243.6,73S210,56.7,213.5,36.6z
			 M281.9,36.6c3.2-17.8-8.1-32.2-26.1-32.2s-34.4,14.4-37.6,32.2s8.3,32.1,26.2,32.1S278.9,54.3,281.9,36.6z"/>
		<path class="st0" d="M12.4,76.1h25.5c16.4,0,20.7,9.6,18.7,21s-11,21.2-26.5,21.2H9.5l-5,28.2H0L12.4,76.1z M31.3,114
			c12.1,0,19.1-7.4,20.7-16.8s-1.8-16.9-14.8-16.9h-21l-6,33.7H31.3z"/>
		<path class="st0" d="M66.5,76.1H71l-11.6,66.2h40.4l-0.7,4.3H54.1L66.5,76.1z"/>
		<path class="st0" d="M158.8,121.6h-33.1l-14.8,25h-4.6l41.7-70.5h4.6l16.9,70.5h-4.6L158.8,121.6z M157.8,117.4l-8.6-35.8
			l-21.1,35.8H157.8z"/>
		<path class="st0" d="M195.2,80.4h-26l0.7-4.3h56.5l-0.7,4.3h-26L188,146.6h-4.5L195.2,80.4z"/>
		<path class="st0" d="M211,111.5c3.6-20.2,22.8-36.5,43-36.5s33.7,16.3,30.1,36.6s-22.8,36.4-43,36.4S207.5,131.7,211,111.5z
			 M279.4,111.5c3.2-17.8-8.1-32.2-26.1-32.2s-34.4,14.4-37.6,32.2s8.3,32.1,26.2,32.1S276.4,129.3,279.4,111.5z"/>
	</g>
</g>
</svg>
